:version 1.10
:name ASF
:units
  mass 1
  length 1
  angle deg
:documentation
  ASF file generated by Kaydara
:root
  axis xyz
  order  tx ty tz rx ry rz
  position 0 0 0
  orientation 0 0 0
:bonedata
  begin
    id 1
    name LeftUpLegDummy
    direction 1 -2.30186e-007 -8.31532e-007
    length 2.93387
    axis 0 0 0 xyz
  end
  begin
    id 2
    name LeftUpLeg
    direction -1.82929e-007 -1 -1.48925e-009
    length 17.3336
    axis -3.48766 0.00143442 -0.000521554 xyz
    dof rx ry rz
  end
  begin
    id 3
    name LeftLeg
    direction -1.82929e-007 -1 -5.23717e-011
    length 14.9995
    axis 3.68178 -0.00654042 -0.000282425 xyz
    dof rx ry rz
  end
  begin
    id 4
    name LeftFoot
    direction 8.31532e-007 -4.54534e-011 1
    length 6.74421
    axis 1.87234e-006 4.66016e-005 -5.96866e-006 xyz
    dof rx ry rz
  end
  begin
    id 5
    name LeftToes
    direction 0.00818058 -0.00485161 0.999955
    length 3.85048
    axis 1.06247e-005 4.65869e-005 -5.96999e-006 xyz
    dof rx ry rz
  end
  begin
    id 6
    name SpineDummy
    direction -5.8607e-008 0.943407 -0.331637
    length 5.93572
    axis 0 0 0 xyz
  end
  begin
    id 7
    name Spine
    direction -1.04988e-007 0.999988 0.00495137
    length 10.1015
    axis -0.001389 0.000121417 6.61666e-006 xyz
    dof rx ry rz
  end
  begin
    id 8
    name Spine1
    direction 0 0 0
    length 0
    axis -0.001389 0.00012144 6.56766e-006 xyz
    dof rx ry rz
  end
  begin
    id 9
    name RightShoulderDummy
    direction -0.98348 0.17941 -0.0240696
    length 3.59882
    axis -0.001389 0.00012144 6.56766e-006 xyz
  end
  begin
    id 10
    name RightShoulder
    direction -0.978693 0.204882 0.0135597
    length 2.70001
    axis 0.215806 0.000203631 -0.00679732 xyz
    dof rx ry rz
  end
  begin
    id 11
    name RightArm
    direction -1 3.85509e-006 8.31394e-007
    length 10.2459
    axis -23.2009 -0.134239 -0.964098 xyz
    dof rx ry rz
  end
  begin
    id 12
    name RightForeArm
    direction -1 3.85569e-006 8.3129e-007
    length 8.16799
    axis -9.92322 0.0658061 0.17887 xyz
    dof rx ry rz
  end
  begin
    id 13
    name RightHand
    direction -0.992843 -0.0414604 0.112003
    length 5.28593
    axis -0.00960638 0.00330669 -0.185225 xyz
    dof rx ry rz
  end
  begin
    id 14
    name LeftShoulder1Dummy
    direction 0.983523 0.179172 -0.0240748
    length 3.59866
    axis -0.001389 0.00012144 6.56766e-006 xyz
  end
  begin
    id 15
    name LeftShoulder1
    direction 0.978627 0.205195 0.0135605
    length 2.70019
    axis -0.001389 0.00012144 6.57583e-006 xyz
    dof rx ry rz
  end
  begin
    id 16
    name LeftArm
    direction 1 3.51895e-006 -8.60188e-007
    length 10.2459
    axis -23.1894 0.134785 0.967513 xyz
    dof rx ry rz
  end
  begin
    id 17
    name LeftForeArm
    direction 1 3.51921e-006 -7.32029e-007
    length 8.16799
    axis -9.91835 -0.0656957 -0.177789 xyz
    dof rx ry rz
  end
  begin
    id 18
    name LeftHand
    direction 0.992938 -0.0411636 0.11126
    length 5.32135
    axis -0.00960237 -0.00340661 0.185177 xyz
    dof rx ry rz
  end
  begin
    id 19
    name HEadDummy
    direction 1.01974e-006 0.999861 -0.016675
    length 2.99946
    axis -0.001389 0.00012144 6.56766e-006 xyz
  end
  begin
    id 20
    name HEad
    direction -0.0222689 0.980941 0.193023
    length 5.12695
    axis -0.001389 0.00012144 6.56766e-006 xyz
    dof rx ry rz
  end
  begin
    id 21
    name RightUpLegDummy
    direction -1 2.30186e-007 8.31532e-007
    length 2.93387
    axis 0 0 0 xyz
  end
  begin
    id 22
    name RightUpLeg
    direction -1.82966e-007 -1 1.56832e-007
    length 17.3336
    axis -3.4909 -0.000906625 0.00028951 xyz
    dof rx ry rz
  end
  begin
    id 23
    name RightLeg
    direction -1.82786e-007 -1 -1.80317e-007
    length 14.9995
    axis 3.68513 0.0193739 -0.131021 xyz
    dof rx ry rz
  end
  begin
    id 24
    name RightFoot
    direction 8.31721e-007 -4.63324e-011 1
    length 6.74421
    axis 4.81691e-005 -0.120479 -0.188785 xyz
    dof rx ry rz
  end
  begin
    id 25
    name RightToes
    direction 0.00124746 -0.014064 0.9999
    length 3.85082
    axis 0.000481921 0.542163 -0.142575 xyz
    dof rx ry rz
  end
:hierarchy
  begin
    root LeftUpLegDummy SpineDummy RightUpLegDummy
    LeftUpLegDummy LeftUpLeg
    LeftUpLeg LeftLeg
    LeftLeg LeftFoot
    LeftFoot LeftToes
    SpineDummy Spine
    Spine Spine1
    Spine1 RightShoulderDummy LeftShoulder1Dummy HEadDummy
    RightShoulderDummy RightShoulder
    RightShoulder RightArm
    RightArm RightForeArm
    RightForeArm RightHand
    LeftShoulder1Dummy LeftShoulder1
    LeftShoulder1 LeftArm
    LeftArm LeftForeArm
    LeftForeArm LeftHand
    HEadDummy HEad
    RightUpLegDummy RightUpLeg
    RightUpLeg RightLeg
    RightLeg RightFoot
    RightFoot RightToes
  end

:SAMPLES-PER-SECOND 30
:FULLY-SPECIFIED
:DEGREES
336
root  3.54995 34.3007 30.0126 6.2922 4.32284 1.17686
LeftUpLeg  -11.2073 8.47701 -1.47499
LeftLeg  14.8233 3.94099 0.773779
LeftFoot  -2.20074 -0.0025169 -0.102408
LeftToes  -13.0598 2.60077e-006 -1.42232e-007
Spine  1.3983 2.3894 -4.29745
Spine1  2.59372 4.90558 -8.16878
RightShoulder  -0.00464923 9.52139 5.50861
RightArm  -63.9238 -6.12153 59.1415
RightForeArm  7.46515 61.3965 18.9214
RightHand  -0.364859 -10.2639 4.42808
LeftShoulder1  0.0409858 0.599731 -11.3209
LeftArm  -33.9696 19.828 -57.1781
LeftForeArm  31.762 -13.6154 -2.44131
LeftHand  0.208533 4.60991 4.80013
HEad  -8.4255 -24.5939 3.1767
RightUpLeg  -12.3577 -9.4035 -9.84347
RightLeg  9.63316 -0.231501 -0.0227239
RightFoot  10.2243 0.0288195 0.0523024
RightToes  -40.797 -0.224881 -0.31931
337
root  3.7365 34.2992 29.9802 6.23419 4.62099 1.33065
LeftUpLeg  -11.1605 8.21718 -1.93977
LeftLeg  14.7607 3.88317 0.75802
LeftFoot  -2.33356 -0.00205998 -0.116481
LeftToes  -12.263 2.60077e-006 -1.42232e-007
Spine  1.47592 2.27434 -4.20723
Spine1  2.76913 4.59954 -7.91042
RightShoulder  -0.00655815 9.82338 5.3237
RightArm  -67.1462 -6.27762 58.5325
RightForeArm  8.29134 62.108 19.5207
RightHand  -0.16489 -8.55259 2.57294
LeftShoulder1  0.0421768 0.818716 -11.314
LeftArm  -32.5897 18.7972 -58.5763
LeftForeArm  29.7689 -15.5444 -2.80491
LeftHand  0.186604 4.33842 4.54622
HEad  -8.7405 -24.7338 2.86516
RightUpLeg  -12.2487 -9.3917 -10.3279
RightLeg  9.61629 -0.617896 -0.0627885
RightFoot  10.559 0.0382374 -0.0362437
RightToes  -41.1274 -0.227551 -0.32208
338
root  3.92621 34.3072 29.9357 6.18422 4.96056 1.4043
LeftUpLeg  -11.0968 7.90041 -2.32244
LeftLeg  14.5926 3.78677 0.727692
LeftFoot  -2.35074 -0.00211762 -0.12145
LeftToes  -11.6368 2.60077e-006 -1.42232e-007
Spine  1.56592 2.16651 -4.07022
Spine1  2.96405 4.31644 -7.5788
RightShoulder  -0.0074949 9.89035 5.18539
RightArm  -69.8632 -5.897 57.814
RightForeArm  5.19915 61.4792 18.982
RightHand  -0.12902 -8.37097 2.13124
LeftShoulder1  0.0432981 0.898178 -11.2643
LeftArm  -30.4997 17.7026 -59.9001
LeftForeArm  28.3864 -17.4277 -3.16637
LeftHand  0.161527 3.85825 4.41492
HEad  -9.10229 -24.8105 2.72506
RightUpLeg  -12.1988 -9.29838 -10.7344
RightLeg  9.67647 -1.12844 -0.117005
RightFoot  10.9758 0.0512913 -0.156301
RightToes  -41.6586 -0.231694 -0.324298
339
root  4.11645 34.3201 29.8794 6.14177 5.19279 1.41933
LeftUpLeg  -11.0614 7.89759 -2.66555
LeftLeg  14.4199 3.51222 0.663938
LeftFoot  -2.33957 -0.00227798 -0.123566
LeftToes  -10.8983 2.60077e-006 -1.42232e-007
Spine  1.65432 2.07897 -3.86419
Spine1  3.14618 4.08692 -7.13463
RightShoulder  -0.00752762 9.90019 5.30401
RightArm  -70.6445 -5.4415 56.5363
RightForeArm  3.57787 61.1072 18.6745
RightHand  -0.150025 -8.5479 2.37546
LeftShoulder1  0.0449706 1.09712 -11.3859
LeftArm  -27.8634 16.4359 -61.0425
LeftForeArm  27.3526 -19.1284 -3.49932
LeftHand  0.148251 3.51948 4.44389
HEad  -9.45769 -24.7911 2.45289
RightUpLeg  -12.2129 -9.03137 -11.0687
RightLeg  9.73898 -1.78913 -0.188259
RightFoot  11.4835 0.0697258 -0.315872
RightToes  -42.0837 -0.235339 -0.326026
340
root  4.29285 34.3316 29.8044 6.08139 5.27304 1.41949
LeftUpLeg  -11.0013 7.95221 -2.98429
LeftLeg  14.1751 3.35398 0.619193
LeftFoot  -2.29135 -0.00241147 -0.124692
LeftToes  -10.1667 2.60077e-006 -1.42232e-007
Spine  1.73244 2.00154 -3.64209
Spine1  3.30239 3.89503 -6.68604
RightShoulder  -0.0068477 9.97462 5.43878
RightArm  -69.2357 -5.67971 54.8257
RightForeArm  12.1801 62.4243 19.8073
RightHand  -0.269523 -7.31662 4.5795
LeftShoulder1  0.046809 1.15489 -11.3745
LeftArm  -25.6881 15.3414 -62.1639
LeftForeArm  26.5928 -20.6161 -3.79636
LeftHand  0.134573 3.22288 4.40137
HEad  -9.71491 -24.5984 2.01867
RightUpLeg  -12.2941 -8.76109 -11.3282
RightLeg  9.81934 -2.46708 -0.26355
RightFoot  11.9186 0.0901484 -0.486007
RightToes  -42.1331 -0.237303 -0.327476
341
root  4.44931 34.3365 29.7144 5.9811 5.26048 1.40819
LeftUpLeg  -10.9712 8.02719 -3.2508
LeftLeg  14.0344 3.23197 0.588449
LeftFoot  -2.25222 -0.00249239 -0.12508
LeftToes  -9.69903 2.60077e-006 -1.42232e-007
Spine  1.86973 1.86606 -3.42387
Spine1  3.57091 3.61197 -6.2738
RightShoulder  -0.00408064 9.66876 5.44458
RightArm  -64.1556 -6.15514 53.244
RightForeArm  19.5297 64.3704 21.671
RightHand  -0.267026 -8.08708 4.14269
LeftShoulder1  0.0486618 1.10858 -11.1492
LeftArm  -23.9668 14.3178 -63.2319
LeftForeArm  25.9173 -21.7708 -4.0311
LeftHand  0.126715 3.02412 4.41753
HEad  -10.3288 -24.1236 1.75426
RightUpLeg  -12.5958 -9.35773 -11.3942
RightLeg  10.2645 -2.83259 -0.325048
RightFoot  12.2765 0.104409 -0.59324
RightToes  -42.5619 -0.238194 -0.328239
342
root  4.57487 34.3444 29.6174 5.91156 5.00308 1.31934
LeftUpLeg  -10.9977 8.32867 -3.404
LeftLeg  13.9211 3.1361 0.564577
LeftFoot  -2.20669 -0.00249505 -0.124977
LeftToes  -9.22147 2.60077e-006 -1.42232e-007
Spine  2.01153 1.74371 -3.21976
Spine1  3.82127 3.38643 -5.9354
RightShoulder  0.00320372 9.3195 5.36108
RightArm  -58.2133 -6.64693 52.726
RightForeArm  24.1718 66.5988 24.185
RightHand  -0.234962 -8.75058 3.43762
LeftShoulder1  0.0509189 0.885951 -10.7611
LeftArm  -22.5859 13.4886 -64.0694
LeftForeArm  25.3903 -22.5857 -4.19912
LeftHand  0.122106 2.94917 4.36052
HEad  -10.8611 -23.5695 1.96372
RightUpLeg  -13.1893 -10.5837 -11.0724
RightLeg  10.9516 -3.54488 -0.450149
RightFoot  12.5736 0.126883 -0.774092
RightToes  -42.3306 -0.237364 -0.327905
343
root  4.65023 34.3583 29.5153 5.8564 4.62801 1.03213
LeftUpLeg  -11.0996 8.844 -3.29804
LeftLeg  13.8545 2.9944 0.535435
LeftFoot  -2.10951 -0.00239378 -0.124635
LeftToes  -8.97663 2.60077e-006 -1.42232e-007
Spine  2.12245 1.62478 -2.9997
Spine1  3.99761 3.17397 -5.56944
RightShoulder  0.0124945 8.71245 5.16861
RightArm  -54.1118 -6.23456 54.1802
RightForeArm  24.5246 67.3198 25.1071
RightHand  -0.0204802 -8.77648 0.636412
LeftShoulder1  0.0539701 0.586404 -10.4173
LeftArm  -21.6617 12.7257 -64.6085
LeftForeArm  25.5393 -22.9199 -4.26852
LeftHand  0.11491 2.84893 4.23824
HEad  -11.0122 -23.0218 2.37729
RightUpLeg  -13.917 -11.9765 -10.2244
RightLeg  11.6403 -5.09179 -0.70881
RightFoot  12.8685 0.171996 -1.14744
RightToes  -41.7823 -0.232875 -0.324967
344
root  4.68136 34.3711 29.4177 5.755 4.27114 0.736898
LeftUpLeg  -11.1574 8.90825 -3.09204
LeftLeg  13.8214 3.29183 0.586764
LeftFoot  -1.99198 -0.00216287 -0.124302
LeftToes  -8.84145 2.60077e-006 -1.42232e-007
Spine  2.25074 1.45931 -2.80787
Spine1  4.21445 2.85997 -5.23266
RightShoulder  0.0208451 8.26105 5.20621
RightArm  -51.6771 -5.3807 56.1171
RightForeArm  17.7136 66.5355 24.0909
RightHand  0.342278 -9.91345 -3.57268
LeftShoulder1  0.0588767 0.336498 -10.2284
LeftArm  -20.8003 11.9067 -64.7578
LeftForeArm  25.8643 -22.8061 -4.24475
LeftHand  0.115597 2.81492 4.33626
HEad  -11.012 -22.4264 2.75357
RightUpLeg  -14.603 -13.2115 -9.21224
RightLeg  12.3756 -7.13352 -1.08524
RightFoot  12.7178 0.220036 -1.59662
RightToes  -40.3349 -0.221164 -0.317006
345
root  4.67248 34.382 29.3355 5.68124 3.93455 0.420867
LeftUpLeg  -11.2483 8.96605 -2.79909
LeftLeg  13.8539 3.59818 0.643551
LeftFoot  -1.92895 -0.00177663 -0.124229
LeftToes  -8.72896 2.60077e-006 -1.42232e-007
Spine  2.36286 1.36922 -2.62087
Spine1  4.40486 2.68327 -4.87494
RightShoulder  0.0279282 8.40481 5.19229
RightArm  -51.8796 -4.84152 58.6458
RightForeArm  9.88287 64.798 22.0879
RightHand  0.546993 -9.5069 -6.19665
LeftShoulder1  0.0646914 0.112859 -10.0068
LeftArm  -20.1608 11.0583 -64.8979
LeftForeArm  26.261 -22.2916 -4.13803
LeftHand  0.117769 2.82528 4.38664
HEad  -11.1637 -22.0772 3.09812
RightUpLeg  -15.1752 -13.8578 -8.29787
RightLeg  13.2952 -7.667 -1.29188
RightFoot  11.7207 0.201515 -1.58548
RightToes  -38.202 -0.204282 -0.304742
346
root  4.63822 34.3869 29.2717 5.62418 3.67716 0.248061
LeftUpLeg  -11.3325 9.03184 -2.58942
LeftLeg  13.9141 3.80178 0.684114
LeftFoot  -1.82542 -0.0012435 -0.124135
LeftToes  -8.95669 2.60077e-006 -1.42232e-007
Spine  2.42533 1.346 -2.53342
Spine1  4.50839 2.63292 -4.6902
RightShoulder  0.0329199 8.72041 5.08965
RightArm  -54.0293 -4.72269 61.8043
RightForeArm  5.46613 62.5368 19.8857
RightHand  0.551315 -9.15578 -6.5026
LeftShoulder1  0.0712919 -0.201528 -9.61348
LeftArm  -20.1524 10.45 -65.0263
LeftForeArm  26.8051 -21.6314 -4.00228
LeftHand  0.117244 2.93494 4.19439
HEad  -11.2721 -21.8941 3.4642
RightUpLeg  -15.5316 -13.6793 -7.78073
RightLeg  14.683 -5.79846 -1.12345
RightFoot  10.2149 0.126932 -1.04247
RightToes  -38.3308 -0.205288 -0.3055
